<?xml version="1.0" encoding="UTF-8"?>
<!DOCTYPE svg PUBLIC "-//W3C//DTD SVG 1.1//EN" "http://www.w3.org/Graphics/SVG/1.1/DTD/svg11.dtd">
<!-- Creator: CorelDRAW 2020 (64-Bit) -->
<svg xmlns="http://www.w3.org/2000/svg" xml:space="preserve" width="0.163957in" height="0.133315in" version="1.1" style="shape-rendering:geometricPrecision; text-rendering:geometricPrecision; image-rendering:optimizeQuality; fill-rule:evenodd; clip-rule:evenodd"
viewBox="0 0 8.3 6.75"
 xmlns:xlink="http://www.w3.org/1999/xlink"
 xmlns:xodm="http://www.corel.com/coreldraw/odm/2003">
 <defs>
  <style type="text/css">
   <![CDATA[
    .str0 {stroke:white;stroke-width:0.17;stroke-linecap:round;stroke-linejoin:round;stroke-miterlimit:2.61313}
    .str1 {stroke:white;stroke-width:0.17;stroke-linecap:round;stroke-linejoin:round;stroke-miterlimit:2.61313}
    .fil0 {fill:none}
    .fil1 {fill:white;fill-rule:nonzero}
   ]]>
  </style>
 </defs>
 <g id="design">
  <metadata id="CorelCorpID_0Corel-Layer"/>
  <g id="_2802832037840">
   <path class="fil0 str0" d="M4.13 4.62l0 -2.39c-0.02,-1.07 1.23,-1.02 1.22,0.54"/>
   <line class="fil0 str1" x1="3.61" y1="4" x2="3.61" y2= "3.49" />
   <g>
    <path class="fil1" d="M3.85 4.31l-0.17 0 0 0 -0 -0.01 -0 -0.01 -0 -0.01 -0 -0.01 -0 -0.01 -0 -0.01 -0 -0.01 -0 -0.01 -0 -0.01 -0 -0.01 -0 -0.01 -0 -0.01 -0 -0.01 -0 -0.01 -0 -0 -0 -0 -0 -0 -0 -0 -0 -0 -0 -0 -0 -0 -0 -0 -0 -0 -0 -0 -0 -0 -0 -0 -0 -0 -0 -0 -0 -0 -0 -0 -0 -0 -0 -0 0 -0.17 0.01 0 0.01 0 0.01 0 0.01 0 0.01 0 0.01 0.01 0.01 0.01 0.01 0.01 0.01 0.01 0.01 0.01 0.01 0.01 0.01 0.01 0.01 0.01 0.01 0.01 0.01 0.01 0.01 0.01 0.01 0.01 0.01 0.01 0.01 0.01 0.01 0.01 0.01 0.01 0.01 0.01 0 0.01 0 0.01 0 0.01 0 0.01 0 0.01 0 0.01 0 0.01 0 0.01 0 0.02 0 0.01 0 0zm-0.25 0.32l0 -0.17 0 0 0 -0 0 -0 0 -0 0 -0 0 -0 0 -0 0 -0 0 -0 0 -0 0 -0 0 -0 0 -0 0 -0 0 -0 0 -0 0 -0 0 -0 0 -0 0 -0.01 0 -0.01 0 -0.01 0 -0.01 0 -0.01 0 -0.01 0 -0.01 0 -0.01 0 -0.01 0 -0.01 0 -0.01 0 -0.01 0 -0.01 0 -0.01 0.17 0 -0 0.01 -0 0.02 -0 0.01 -0 0.01 -0 0.01 -0 0.01 -0 0.01 -0 0.01 -0 0.01 -0 0.01 -0.01 0.01 -0.01 0.01 -0.01 0.01 -0.01 0.01 -0.01 0.01 -0.01 0.01 -0.01 0.01 -0.01 0.01 -0.01 0.01 -0.01 0.01 -0.01 0.01 -0.01 0.01 -0.01 0.01 -0.01 0.01 -0.01 0.01 -0.01 0.01 -0.01 0.01 -0.01 0 -0.01 0 -0.01 0 -0.01 0 -0.01 0 0 0zm-0.25 -0.32l0.17 0 0 0 0 0.01 0 0.01 0 0.01 0 0.01 0 0.01 0 0.01 0 0.01 0 0.01 0 0.01 0 0.01 0 0.01 0 0.01 0 0.01 0 0.01 0 0.01 0 0.01 0 0 0 0 0 0 0 0 0 0 0 0 0 0 0 0 0 0 0 0 0 0 0 0 0 0 0 0 0 0 0 0 0 0.17 -0.01 -0 -0.01 -0 -0.01 -0 -0.01 -0 -0.01 -0 -0.01 -0.01 -0.01 -0.01 -0.01 -0.01 -0.01 -0.01 -0.01 -0.01 -0.01 -0.01 -0.01 -0.01 -0.01 -0.01 -0.01 -0.01 -0.01 -0.01 -0.01 -0.01 -0.01 -0.01 -0.01 -0.01 -0.01 -0.01 -0.01 -0.01 -0.01 -0.01 -0.01 -0.01 -0.01 -0.01 -0 -0.01 -0 -0.01 -0 -0.01 -0 -0.01 -0 -0.01 -0 -0.01 -0 -0.01 -0 -0.02 -0 -0.01 0 0zm0.25 -0.32l0 0.17 0 0 -0 0 -0 0 -0 0 -0 0 -0 0 -0 0 -0 0 -0 0 -0 0 -0 0 -0 0 -0 0 -0 0 -0 0 -0 0 -0 0 -0 0.01 -0 0.01 -0 0.01 -0 0.01 -0 0.01 -0 0.01 -0 0.01 -0 0.01 -0 0.01 -0 0.01 -0 0.01 -0 0.01 -0 0.01 -0 0.01 -0 0.01 -0 0.01 -0.17 0 0 -0.01 0 -0.02 0 -0.01 0 -0.01 0 -0.01 0 -0.01 0 -0.01 0 -0.01 0 -0.01 0.01 -0.01 0.01 -0.01 0.01 -0.01 0.01 -0.01 0.01 -0.01 0.01 -0.01 0.01 -0.01 0.01 -0.01 0.01 -0.01 0.01 -0.01 0.01 -0.01 0.01 -0.01 0.01 -0.01 0.01 -0.01 0.01 -0.01 0.01 -0.01 0.01 -0.01 0.01 -0.01 0.01 -0 0.01 -0 0.01 -0 0.01 -0 0.01 -0 0 0z"/>
   </g>
   <g>
    <path class="fil1" d="M3.77 4.15l0.07 0.15c-0.04,0.02 -0.09,-0 -0.11,-0.04 -0.02,-0.04 0,-0.09 0.04,-0.11zm0.28 -0.12l0.07 0.15 -0.28 0.12 -0.07 -0.15 0.28 -0.12zm0.07 0.15l-0.07 -0.15c0.04,-0.02 0.09,0 0.11,0.04 0.02,0.04 -0,0.09 -0.04,0.11z"/>
   </g>
   <g>
    <path class="fil1" d="M0.05 6.59l0.08 0.15c-0.04,0.02 -0.09,0 -0.11,-0.04 -0.02,-0.04 -0,-0.09 0.04,-0.11zm8.13 -4.1l0.08 0.15 -8.13 4.1 -0.08 -0.15 8.13 -4.1zm0.08 0.15l-0.08 -0.15c0.04,-0.02 0.09,-0 0.11,0.04 0.02,0.04 0,0.09 -0.04,0.11z"/>
   </g>
   <g>
    <path class="fil1" d="M0 6.67l0.17 0c0,0.05 -0.04,0.08 -0.08,0.08 -0.05,0 -0.08,-0.04 -0.08,-0.08zm0 -2.46l0.17 0 0 2.46 -0.17 0 0 -2.46zm0.17 0l-0.17 0c0,-0.05 0.04,-0.08 0.08,-0.08 0.05,0 0.08,0.04 0.08,0.08z"/>
   </g>
   <g>
    <path class="fil1" d="M8.13 2.54l0.17 0c0,0.05 -0.04,0.08 -0.08,0.08 -0.05,0 -0.08,-0.04 -0.08,-0.08zm0 -2.46l0.17 0 0 2.46 -0.17 0 0 -2.46zm0.17 0l-0.17 0c0,-0.05 0.04,-0.08 0.08,-0.08 0.05,0 0.08,0.04 0.08,0.08z"/>
   </g>
   <g>
    <path class="fil1" d="M0.77 5.63l0.16 0.07c-0.02,0.04 -0.07,0.06 -0.11,0.04 -0.04,-0.02 -0.06,-0.07 -0.04,-0.11zm0.75 -1.71l0.16 0.07 -0.75 1.71 -0.16 -0.07 0.75 -1.71zm0.16 0.07l-0.16 -0.07c0.02,-0.04 0.07,-0.06 0.11,-0.04 0.04,0.02 0.06,0.07 0.04,0.11z"/>
   </g>
   <g>
    <path class="fil1" d="M0.06 4.11l0.08 0.15c-0.04,0.02 -0.09,0 -0.11,-0.04 -0.02,-0.04 -0,-0.09 0.04,-0.11zm3.39 -1.71l0.08 0.15 -3.39 1.71 -0.08 -0.15 3.39 -1.71zm0.08 0.15l-0.08 -0.15c0.04,-0.02 0.09,-0 0.11,0.04 0.02,0.04 0,0.09 -0.04,0.11z"/>
   </g>
   <g>
    <path class="fil1" d="M1.99 5.03l0.16 0.07c-0.02,0.04 -0.07,0.06 -0.11,0.04 -0.04,-0.02 -0.06,-0.07 -0.04,-0.11zm0.75 -1.71l0.16 0.07 -0.75 1.71 -0.16 -0.07 0.75 -1.71zm0.16 0.07l-0.16 -0.07c0.02,-0.04 0.07,-0.06 0.11,-0.04 0.04,0.02 0.06,0.07 0.04,0.11z"/>
   </g>
   <g>
    <path class="fil1" d="M5.42 1.41l0.08 0.15c-0.04,0.02 -0.09,0 -0.11,-0.04 -0.02,-0.04 -0,-0.09 0.04,-0.11zm2.76 -1.39l0.08 0.15 -2.76 1.39 -0.08 -0.15 2.76 -1.39zm0.08 0.15l-0.08 -0.15c0.04,-0.02 0.09,-0 0.11,0.04 0.02,0.04 0,0.09 -0.04,0.11z"/>
   </g>
   <g>
    <path class="fil1" d="M5.66 3.2l0.16 0.07c-0.02,0.04 -0.07,0.06 -0.11,0.04 -0.04,-0.02 -0.06,-0.07 -0.04,-0.11zm0.75 -1.71l0.16 0.07 -0.75 1.71 -0.16 -0.07 0.75 -1.71zm0.16 0.07l-0.16 -0.07c0.02,-0.04 0.07,-0.06 0.11,-0.04 0.04,0.02 0.06,0.07 0.04,0.11z"/>
   </g>
   <g>
    <path class="fil1" d="M6.89 2.6l0.16 0.07c-0.02,0.04 -0.07,0.06 -0.11,0.04 -0.04,-0.02 -0.06,-0.07 -0.04,-0.11zm0.75 -1.71l0.16 0.07 -0.75 1.71 -0.16 -0.07 0.75 -1.71zm0.16 0.07l-0.16 -0.07c0.02,-0.04 0.07,-0.06 0.11,-0.04 0.04,0.02 0.06,0.07 0.04,0.11z"/>
   </g>
  </g>
 </g>
</svg>
