<?xml version="1.0" encoding="UTF-8"?>
<!DOCTYPE svg PUBLIC "-//W3C//DTD SVG 1.1//EN" "http://www.w3.org/Graphics/SVG/1.1/DTD/svg11.dtd">
<!-- Creator: CorelDRAW 2020 (64-Bit) -->
<svg xmlns="http://www.w3.org/2000/svg" xml:space="preserve" width="0.17772in" height="0.116394in" version="1.1" style="shape-rendering:geometricPrecision; text-rendering:geometricPrecision; image-rendering:optimizeQuality; fill-rule:evenodd; clip-rule:evenodd"
viewBox="0 0 9.65 6.32"
 xmlns:xlink="http://www.w3.org/1999/xlink"
 xmlns:xodm="http://www.corel.com/coreldraw/odm/2003">
 <defs>
  <style type="text/css">
   <![CDATA[
    .str1 {stroke:white;stroke-width:0.2;stroke-miterlimit:2.61313}
    .str0 {stroke:white;stroke-width:0.2;stroke-miterlimit:2.61313}
    .str3 {stroke:white;stroke-width:0.2;stroke-linecap:round;stroke-linejoin:round;stroke-miterlimit:2.61313}
    .str4 {stroke:white;stroke-width:0.2;stroke-linecap:round;stroke-linejoin:round;stroke-miterlimit:2.61313}
    .str2 {stroke:white;stroke-width:0.2;stroke-linecap:round;stroke-linejoin:round;stroke-miterlimit:2.61313}
    .fil1 {fill:none}
    .fil0 {fill:white;fill-rule:nonzero}
   ]]>
  </style>
 </defs>
 <g id="design">
  <metadata id="CorelCorpID_0Corel-Layer"/>
  <g id="_2802828504032">
   <g>
    <path class="fil0" d="M6.52 1.02l-6.38 3.22 -0.09 -0.18 6.38 -3.22 0.09 -0 0 0.18zm-0.09 -0.18c0.05,-0.02 0.11,-0 0.13,0.04 0.02,0.05 0,0.11 -0.04,0.13l-0.09 -0.18zm3.08 1.58l-3.07 -1.4 0.08 -0.18 3.07 1.4 0.01 0.18 -0.09 0zm0.08 -0.18c0.05,0.02 0.07,0.08 0.05,0.13 -0.02,0.05 -0.08,0.07 -0.13,0.05l0.08 -0.18zm-6.39 3.44l6.3 -3.43 0.09 0.18 -6.3 3.43 -0.09 0 -0 -0.18zm0.09 0.18c-0.05,0.03 -0.11,0.01 -0.13,-0.04 -0.03,-0.05 -0.01,-0.11 0.04,-0.14l0.09 0.18zm-3.15 -1.79l3.15 1.61 -0.09 0.18 -3.15 -1.61 0 -0.18 0.09 0zm-0.09 0.18c-0.05,-0.02 -0.07,-0.09 -0.04,-0.13 0.03,-0.05 0.08,-0.07 0.13,-0.04l-0.09 0.18z"/>
   </g>
   <g>
    <path class="fil0" d="M0.2 4.16l0.01 0.41 -0.2 0.01 -0.01 -0.41 0.07 -0.1 0.12 0.09zm-0.2 0.01c-0,-0.05 0.04,-0.1 0.1,-0.1 0.05,-0 0.1,0.04 0.1,0.1l-0.2 0.01zm0.15 0.09l-0.02 0.01 -0.05 -0.19 0.02 -0.01 0.07 0.01 -0.02 0.19zm-0.05 -0.19c0.05,-0.01 0.11,0.02 0.12,0.07 0.01,0.05 -0.02,0.11 -0.07,0.12l-0.05 -0.19zm3.1 1.78l-3.12 -1.6 0.09 -0.18 3.12 1.6 0 0.18 -0.09 0zm0.09 -0.18c0.05,0.02 0.07,0.09 0.04,0.13 -0.03,0.05 -0.08,0.07 -0.13,0.04l0.09 -0.18zm6.2 -3.18l-6.2 3.36 -0.09 -0.18 6.2 -3.36 0.07 -0.01 0.03 0.19zm-0.09 -0.18c0.05,-0.03 0.11,-0.01 0.13,0.04 0.03,0.05 0.01,0.11 -0.04,0.14l-0.09 -0.18zm0.12 0.2l-0.09 -0.02 0.04 -0.2 0.09 0.02 0.08 0.1 -0.12 0.1zm0.04 -0.2c0.05,0.01 0.09,0.06 0.08,0.12 -0.01,0.05 -0.06,0.09 -0.12,0.08l0.04 -0.2zm-0.12 0.48l0 -0.38 0.2 0 -0 0.38 -0.05 0.09 -0.15 -0.09zm0.2 0c0,0.05 -0.04,0.1 -0.1,0.1 -0.05,0 -0.1,-0.04 -0.1,-0.1l0.2 0zm-6.35 3.33l6.21 -3.42 0.09 0.17 -6.21 3.42 -0.09 0 -0 -0.18zm0.09 0.17c-0.05,0.03 -0.11,0.01 -0.13,-0.04 -0.03,-0.05 -0.01,-0.11 0.04,-0.14l0.09 0.17zm-3.22 -1.82l3.22 1.65 -0.09 0.18 -3.22 -1.65 -0.05 -0.09 0.14 -0.09zm-0.09 0.18c-0.05,-0.02 -0.07,-0.09 -0.04,-0.13 0.03,-0.05 0.08,-0.07 0.13,-0.04l-0.09 0.18z"/>
   </g>
   <ellipse class="fil1 str0" cx="5.02" cy="3.12" rx="1.53" ry="0.76"/>
   <ellipse class="fil1 str1" cx="5.02" cy="3.55" rx="0.14" ry="0.07"/>
   <path class="fil1 str2" d="M3.29 2.54l0 -1.87c-0.01,-0.84 0.96,-0.8 0.95,0.42"/>
   <line class="fil1 str3" x1="2.88" y1="2.05" x2="2.88" y2= "1.65" />
   <g>
    <path class="fil0" d="M3.1 2.29l-0.2 0 0 0 -0 -0.01 -0 -0.01 -0 -0 -0 -0.01 -0 -0.01 -0 -0 -0 -0.01 -0 -0 -0 -0.01 -0 -0 -0 -0 -0 -0 -0 -0 -0 -0 -0 -0 -0 -0 -0 -0 -0 -0 -0 -0 -0 -0 -0 -0 -0 -0 -0 -0 -0 -0 -0 0 -0 -0 -0 -0 0 0 -0 0 -0 0 0 0 -0 0 0 -0.2 0.01 0 0.01 0 0.01 0 0.01 0 0.01 0 0.01 0 0.01 0.01 0.01 0.01 0.01 0.01 0.01 0.01 0.01 0.01 0.01 0.01 0.01 0.01 0.01 0.01 0.01 0.01 0.01 0.01 0.01 0.01 0.01 0.01 0.01 0.01 0.01 0.01 0.01 0.01 0 0.01 0 0.01 0 0.01 0 0.01 0 0.01 0 0.01 0 0.01 0 0.01 0 0.01 0 0.01 0 0.01 0 0zm-0.23 0.28l0 -0.2 0 0 0 0 -0 0 0 0 0 0 -0 0 0 -0 0 -0 0 0 0 -0 0 -0 0 -0 0 -0 0 -0 0 -0 0 -0 0 -0 0 -0 0 -0 0 -0 0 -0 0 -0 0 -0 0 -0 0 -0.01 0 -0 0 -0.01 0 -0 0 -0.01 0 -0.01 0 -0 0 -0.01 0 -0.01 0.2 0 -0 0.01 -0 0.01 -0 0.01 -0 0.01 -0 0.01 -0 0.01 -0 0.01 -0 0.01 -0 0.01 -0 0.01 -0 0.01 -0.01 0.01 -0.01 0.01 -0.01 0.01 -0.01 0.01 -0.01 0.01 -0.01 0.01 -0.01 0.01 -0.01 0.01 -0.01 0.01 -0.01 0.01 -0.01 0.01 -0.01 0.01 -0.01 0.01 -0.01 0.01 -0.01 0.01 -0.01 0 -0.01 0 -0.01 0 -0.01 0 -0.01 0 -0.01 0 0 0zm-0.23 -0.28l0.2 0 0 0 0 0.01 0 0.01 0 0 0 0.01 0 0.01 0 0 0 0.01 0 0.01 0 0 0 0 0 0 0 0 0 0 0 0 0 0 0 0 0 0 0 0 0 0 0 0 0 0 0 0 0 0 0 0 -0 -0 0 0 0 0 -0 -0 0 0 0 0 -0 0 0 0 0 0.2 -0.01 -0 -0.01 -0 -0.01 -0 -0.01 -0 -0.01 -0 -0.01 -0 -0.01 -0 -0.01 -0.01 -0.01 -0.01 -0.01 -0.01 -0.01 -0.01 -0.01 -0.01 -0.01 -0.01 -0.01 -0.01 -0.01 -0.01 -0.01 -0.01 -0.01 -0.01 -0.01 -0.01 -0.01 -0.01 -0.01 -0.01 -0.01 -0.01 -0 -0.01 -0 -0.01 -0 -0.01 -0 -0.01 -0 -0.01 -0 -0.01 -0 -0.01 -0 -0.01 -0 -0.01 -0 -0.01 -0 -0.01 0 0zm0.23 -0.28l0 0.2 0 0 -0 0 0 0 -0 0 -0 0 0 -0 -0 0 -0 0 0 -0 -0 0 -0 0 -0 0 -0 0 -0 0 -0 0 -0 0 -0 0 -0 0 -0 0 -0 0 -0 0 -0 0 -0 0 -0 0 -0 0 -0 0.01 -0 0.01 -0 0 -0 0.01 -0 0.01 -0 0 -0 0.01 -0 0.01 -0.2 0 0 -0.01 0 -0.01 0 -0.01 0 -0.01 0 -0.01 0 -0.01 0 -0.01 0 -0.01 0 -0.01 0 -0.01 0 -0.01 0.01 -0.01 0.01 -0.01 0.01 -0.01 0.01 -0.01 0.01 -0.01 0.01 -0.01 0.01 -0.01 0.01 -0.01 0.01 -0.01 0.01 -0.01 0.01 -0.01 0.01 -0.01 0.01 -0.01 0.01 -0.01 0.01 -0 0.01 -0 0.01 -0 0.01 -0 0.01 -0 0.01 -0 0.01 -0 0 0z"/>
   </g>
   <line class="fil1 str4" x1="3.03" y1="2.23" x2="3.25" y2= "2.13" />
  </g>
 </g>
</svg>
