<?xml version="1.0" encoding="UTF-8"?>
<!DOCTYPE svg PUBLIC "-//W3C//DTD SVG 1.1//EN" "http://www.w3.org/Graphics/SVG/1.1/DTD/svg11.dtd">
<!-- Creator: CorelDRAW X7 -->
<svg xmlns="http://www.w3.org/2000/svg" xml:space="preserve" width="0.333331in" height="0.333335in" version="1.1" style="shape-rendering:geometricPrecision; text-rendering:geometricPrecision; image-rendering:optimizeQuality; fill-rule:evenodd; clip-rule:evenodd"
viewBox="0 0 17 17"
 xmlns:xlink="http://www.w3.org/1999/xlink">
 <defs>
  <style type="text/css">
   <![CDATA[
    .str0 {stroke:white;stroke-width:0.208519;stroke-linecap:round;stroke-linejoin:round}
    .fil2 {fill:none}
    .fil1 {fill:white;fill-rule:nonzero}
    .fil0 {fill:black;fill-opacity:0.729412}
   ]]>
  </style>
 </defs>
 <g id="Layer_x0020_1">
  <metadata id="CorelCorpID_0Corel-Layer"/>
  <g id="_2024115008720">
   <!-- <polygon class="fil0" points="17,17 0,17 0,0 17,0 "/> -->
   <!-- <path class="fil1" d="M2 15c0,0 0,0 0,0 0,0 0,0 0,-1 0,0 0,0 0,0 0,0 0,0 0,0 0,0 0,0 1,0 0,0 0,0 0,1l0 0c0,0 -1,0 -1,0 0,-1 0,-1 0,-1 0,0 0,0 0,0 0,0 0,0 0,0 0,0 0,1 0,1 0,0 0,0 0,0 0,0 0,0 0,0 0,0 0,0 0,0 0,0 0,0 0,0 0,0 0,0 0,0 0,0 0,0 0,0 0,0 0,0 0,0 0,0 0,0 0,0 1,0 1,0 1,0l0 0c0,0 0,0 0,0 0,0 -1,0 -1,0 0,0 0,0 0,0 0,0 0,0 0,0 0,0 0,0 0,0 0,0 0,0 0,0 0,0 0,0 0,0zm1 0l0 -1 0 0c0,0 0,0 0,0 1,0 1,0 1,0 0,0 0,0 0,1 0,0 0,0 0,0 0,0 0,0 0,0 0,0 0,0 0,0 0,0 -1,0 -1,0l1 0 0 0 -1 0 0 0 0 0 0 0zm0 0l0 0c0,0 0,0 0,0 0,0 1,0 1,0 0,0 0,0 0,0 0,0 0,0 0,0 -1,0 -1,-1 -1,-1 0,0 0,0 0,0l0 0 0 1zm1 0c0,0 0,0 0,0 0,0 0,0 0,0 0,0 0,0 0,0 0,0 0,0 0,0 0,0 0,0 0,0 0,0 0,0 0,-1 0,0 0,0 0,0 0,0 0,0 0,0 0,0 1,0 1,0 0,0 0,0 0,0 0,1 0,1 0,1 0,0 0,0 0,0 0,0 0,0 0,0 0,0 0,0 0,0 0,0 0,0 0,0 0,0 -1,0 -1,0zm0 0c0,0 0,0 0,0 0,0 0,0 0,0 0,0 0,0 0,0 0,0 0,0 0,0 0,0 0,0 1,0 0,0 0,0 0,0 0,0 0,0 0,0 0,0 0,0 0,0 0,0 0,0 0,0 0,0 0,0 0,0 0,0 0,-1 0,-1 -1,0 -1,0 -1,0 0,0 0,0 0,0 0,0 0,1 0,1 0,0 0,0 0,0 0,0 0,0 0,0zm1 -1l1 0 0 1 0 -1 0 0 0 1 0 0 0 -1 1 0 -1 1 0 0 0 0 0 0 -1 0 0 -1 0 0 0 1 1 0 -1 -1zm2 1l0 0 0 0 0 -1 0 0 1 1 0 -1 0 0 0 1 0 0 -1 0zm2 0l0 0 0 0 0 0 0 0 0 0 -1 0 0 -1 1 0 0 1 0 -1 0 0 0 1 0 0zm1 0c0,0 0,0 0,0 0,0 0,0 0,0 0,0 0,0 0,0 0,0 0,0 0,0 0,0 0,0 0,0 0,0 0,0 0,-1 0,0 0,0 0,0 0,0 0,0 0,0 0,0 0,0 0,0 0,0 1,0 1,0 0,1 0,1 0,1 0,0 0,0 0,0 0,0 0,0 0,0 0,0 0,0 0,0 0,0 -1,0 -1,0 0,0 0,0 0,0zm0 0c0,0 0,0 0,0 0,0 0,0 0,0 0,0 0,0 0,0 0,0 0,0 0,0 0,0 0,0 0,0 0,0 0,0 0,0 1,0 1,0 1,0 0,0 0,0 0,0 0,0 0,0 0,0 0,0 0,0 -1,0 0,0 0,-1 0,-1 0,0 0,0 0,0 0,0 0,0 0,0 0,0 0,1 0,1 0,0 0,0 0,0 0,0 0,0 0,0zm1 0l0 -1 0 0 0 1 1 0 0 0 -1 0zm1 0l0 -1 0 0c0,0 0,0 1,0 0,0 0,1 0,1 0,0 0,0 0,0 0,0 0,0 0,0 0,0 0,0 0,0 -1,0 -1,0 -1,0l0 0zm1 0c0,0 0,0 0,0 0,0 0,0 -1,-1 0,0 0,0 0,0l0 0 0 1 0 0c0,0 0,0 0,0 1,0 1,0 1,0 0,0 0,0 0,0zm0 0l0 -1 0 0 0 1 0 0zm1 0l0 0 -1 0 0 -1 1 0 0 1 0 -1 0 0 0 1 0 0 0 0zm1 0c0,0 0,0 0,0 0,0 0,0 0,0 0,0 0,0 0,0 0,0 0,0 0,0 0,0 0,0 0,0 0,0 0,0 0,-1 0,0 0,0 0,0 0,0 0,0 0,0 0,0 0,0 0,0 0,0 1,0 1,1l-1 0c0,0 0,0 0,-1 0,0 0,0 0,0 0,0 0,0 0,0 0,0 0,1 0,1 0,0 0,0 0,0 0,0 0,0 0,0 0,0 0,0 0,0 0,0 0,0 0,0 0,0 0,0 0,0 0,0 0,0 0,0 0,0 0,0 0,0 0,0 0,0 0,0l0 0c0,0 0,0 0,0zm0 0l0 0 0 0 1 0 0 0 -1 0 0 0z"/> -->
   <path class="fil2 str0" d="M3 10l6 -5 1 0 0 2c-2,0 -2,2 -4,3l0 0c-1,0 -2,1 -2,2l-1 0 0 -2z"/>
   <line class="fil2 str0" x1="9" y1="5" x2="13" y2= "3" />
   <line class="fil2 str0" x1="10" y1="5" x2="14" y2= "3" />
   <line class="fil2 str0" x1="10" y1="7" x2="14" y2= "5" />
   <line class="fil2 str0" x1="6" y1="10" x2="10" y2= "9" />
   <line class="fil2 str0" x1="4" y1="12" x2="8" y2= "10" />
   <path class="fil2 str0" d="M13 3l1 0 0 2c-2,1 -2,3 -4,3l0 1c-1,0 -2,0 -2,1"/>
  </g>
 </g>
</svg>
